<?xml version="1.0" encoding="utf-8"?>
<!-- Generator: Adobe Illustrator 23.0.1, SVG Export Plug-In . SVG Version: 6.00 Build 0)  -->
<svg version="1.1" xmlns="http://www.w3.org/2000/svg" xmlns:xlink="http://www.w3.org/1999/xlink" x="0px" y="0px"
	 viewBox="0 0 800 600" style="enable-background:new 0 0 800 600;" xml:space="preserve">
<style type="text/css">
	.st0{fill:none;stroke:#000000;stroke-width:0.5;stroke-linecap:round;stroke-linejoin:round;}
	.st1{font-family:'Roboto-Regular';}
	.st2{font-size:14px;}
</style>
<g id="Laos">
	<path class="st0" d="M294.78,36.364l0.404,0.898l0.355,0.641l0.599,2.039l0.167,0.23l0.518,0.394l0.194,0.284v0.35l-0.197,0.764
		l0.093,0.397l0.867,0.971l1.034,0.727l0.858,0.834l0.383,1.294l1.151,1.097l3.595,1.83l4.277,4.212l1.873,1.136l0.559,0.53
		l0.395,0.683l0.586,1.598l0.413,0.726l1.222,0.952l1.494,0.866l0.91,0.812l-0.525,0.806l-0.17,0.186l-0.13,0.203l-0.105,0.233
		l-0.056,0.25l0.697,2.432l2.259,1.184l2.648,0.885l1.839,1.55l2.037,4.678l0.565,2.629l-0.287,3.771l0.126,1.468l0.293,1.455
		l0.389,1.003l0.438,0.657l0.167,0.096l0.238-0.136l3.157-0.056l0.648-0.153l1.852-1.235l1.345-1.734l0.716-2.06l0.148-5.171
		l1.049-1.014l1.179,0.951l0.506,2.938l-0.182,2.562l0.194,1.242l0.719,0.771l1.034-0.076l4.329-1.89l0.336-0.253l0.309,0.12
		l0.491,0.847l0.232,0.701l0.111,0.741l-0.056,4.413l0.197,1.557l0.596,1.407l0.049,0.179l0.022,0.186l-0.022,0.183l-0.049,0.182
		l-1.194,1.158l-2.24,2.807l-1.29,1.174l-2.706,4.483l0.901-0.434l1.194-0.762l1.16-0.554l0.827,0.166l-0.074,0.736l-1.969,3.225
		l-0.25,1.312l-0.049,2.932l-0.216,1.08l-0.728,0.739l-2.021,0.507l-0.978,0.768l-0.685,1.222l0.469,0.271l1.136-0.119l1.315,0.05
		l0.892,0.351l0.778,0.549l0.58,0.685l0.305,0.758L340.947,113l-0.525,1.274v0.619l0.364,0.642l0.407,0.119l0.494,0.023l0.611,0.371
		l0.67,1.072l0.015,0.065l-0.015,0.001l-4.802,0.366l-0.975-0.308l-0.889,0.005l-0.605,1.17l-0.444,3.035l-0.018,1.691l-0.543,1.02
		l-1.722,0.175l-0.531,0.172l-0.247,0.506l-0.056,0.364l-3.999,1.656l-0.852,0.511l-0.957,1.948l-2.018-0.321l-1.493,0.365
		l-1.296,0.851l-3.438,4.167l-3.29-1.283l-0.253-1.247l-0.741-0.752l-1.734-0.317l-1.79-0.086l-1.907-1.214l-2.197-1.076
		l-1.481-1.699l-2.061-1.299l-2.055-0.775l-2.024,0.569l-2.037-0.169l-2.043-1.223l-1.691-1.64l-2.796-3.739l-1.845-0.979
		l-4.647-1.279l-0.654-0.711l-0.932-0.587l-1.049-0.326l-2.728-2.11l-1.094-0.582l0.079-0.196l0.056-0.662l-0.21-0.821l-0.475-0.695
		l-0.663-0.573l-0.753-0.457l-3.107-1.159l-0.836-0.765l-0.441-1.083l0.028-1.093l0.595-2.386l0.247-6.341l0.87-1.37l0.238-1.214
		l-0.805-2.561l0.086-1.058l0.879-0.564l1.299-0.183l1.247-0.368l0.753-1.138l-0.139-1.281l-0.855-0.521l-1.117-0.309l-0.889-0.631
		l-0.216-0.674l0.197-1.341l-0.049-0.628l-0.339-0.531l-0.975-0.86l-0.253-0.392l-0.034-0.973l0.219-1.146l1.188-3.592l-0.028-0.628
		l-1.487-1.36l-0.293-0.455L270.3,70.4l-1.364-1.869l-0.167-0.549l-0.037-0.496l-0.111-0.502l-0.414-0.562l-2.123-0.612
		l-1.302-0.822l-0.568-0.898l-0.383-2.569l-0.491-1.328l-1.626-2.667l-0.568-1.342l-0.025-1.422l0.407-1.139l0.306-1.243
		l-0.324-1.726l-0.747-1.123l-1.839-2.237l-0.148-1.107l0.954-1.164l0.534-0.52l0.617-0.337l0.759-0.007l0.719,0.237l0.731,0.113
		l0.79-0.364l0.293-0.507l0.821-2.685l0.157-1.028l0.071-0.277l1.04-1.074l0.154-0.09l0.12-1.281l-0.093-1.258l0.056-1.305
		l0.565-1.416l0.842-1.045l1.222-1.072l1.435-0.818l1.71-0.291h0.528l0.265,0.033l1.781,1.506l1.966,4.257l1.481,1.485l1.512,0.29
		l0.559-0.841l0.253-1.312l0.605-1.132l1.058-0.401l2.598-0.063l1.274-0.534l1.241-0.147l1.169,0.087l3.663,0.881l0.574,0.214
		l0.586,0.387l0.275,0.534l0.04,0.587l0.402,0.531H294.78z"/>
	<path class="st0" d="M273.867,115.917l0.104-0.64l-0.395-0.91l-0.21-0.725l0.805-0.731l1.342,0.285l0.549-0.099l0.481-0.324
		l0.358-0.41l0.131-0.327l1.094,0.582l2.728,2.11l1.049,0.326l0.932,0.587l0.654,0.711l4.647,1.279l1.845,0.979l2.796,3.739
		l1.691,1.64l2.043,1.223l2.037,0.169l2.024-0.569l2.055,0.775l2.061,1.299l1.481,1.699l0.062,1.759l1.919,2.554l0.518,1.637
		l0.037,1.356l-0.957,2.542l0.29,1.532l-0.074,0.85l0.512,0.828l0.42,1.102l-0.086,1.241l-0.901,2.987l-2.08,2.257l-4.067,0.607
		l-0.21,1.505l-1.537,3.374l-1.16,3.437l-2.617,5.737l-0.185,1.904l0.802,1.118l1.031,0.951l0.173,1.772l-0.821,1.741l-0.123,2.724
		l1.802,2.363l0.846,2.065l-0.426,2.173l-1.592,1.467l-0.969,1.947l-1.969,0.202l-3.32,1.928l-0.981,0.283l-3.277-0.371
		l-1.061,0.371l-1.45,1.242l-3.08,3.484l-1.993,1.387l-2.142,0.601l-4.857,0.44l-2.413,0.655l-0.704,0.542l-1.753,1.73l-0.605,0.369
		l-0.907,0.287l-1.296,0.655l-0.753,0.717l0.716,0.471l-1.308,1.548l-2.24,0.497l-18.003,0.138l-1.389-0.41l-3.888-2.616
		l-1.142-0.586l-0.506-0.354l-0.636-0.31l-0.759-0.036l-0.555,0.228l-1.487,1.073l-1.481,1.455l-0.975,0.317l-0.802-0.943h-0.444
		l-0.167,0.354l-0.389,0.574l-0.222,0.449l-2.08-1.622l-2.777-0.869l-7.295-1.193l-0.821,0.064l-0.753,0.392l-0.975,0.899
		l-1.197-2.871l-0.086-2.613l4.845-1.768l5.456-0.197l1.333-0.589l1.265-0.739l1.432-1.442l1.21-1.596l0.586-2.245l1.882-1.242
		l2.339-0.427l3.505,2.561l2.024,0.263l1.882-0.986l1.352-1.38l0.883-1.589l0.16-7.094l-0.13-1.008l-0.586-1.405l-0.364-1.458
		l-0.068-0.668l2.932,0.201l5.993-0.385l4.678-2.164l1.969-3.751l1.049-1.472l1.154-1.1l0.907-1.322l1.672-5.034l-0.457-5.014
		l-0.5-0.976l-2.179-1.74l-0.63-1.592l-5.777-1.986l2.142-1.122l2.16-4.256l2.709-2.468l2.308-0.561l0.932-0.451l2.586,0.018
		l0.321-0.981l-0.716-0.956l0.185-2.446l2-1.763l2.302-1.193l2.32-0.874l1.302-1.98l0.932-2.288l0.71-4.877L273.867,115.917z"/>
	<path class="st0" d="M237.476,90.767l0.926,0.066l0.719,1.048l0.071,1.891l-1.163,5.219l0.188,1.356l0.46,0.335l1.722,0.941
		l1.105,0.809l0.259-0.056l0.139,0.003l0.099,0.517l-0.713,1.832l-0.92,1.299l0.124,0.394l0.531,0.56l0.117,0.235l-0.077,0.884
		l-0.602,2.368l0.679,0.758l0.861,1.758l0.571,0.857l0.92,0.857l0.929,0.344l1.04-0.126l1.265-0.556l2.888-1.989l1.148-0.427
		l6.786-1.304l1.342,0.013l1.284,0.242l2.018,0.685l0.404,0.036l0.256,0.205l0.253,0.708l-0.093,0.583l-0.339,0.609l-0.222,0.612
		l0.272,0.609l0.879,0.146l2.354-1.029l1.145,0.017l0.898,0.778l1.083,1.999l0.954,0.688l0.815,0.04l1.169-0.198l1.105-0.364
		l0.642-0.473l0.102-0.628l0.7,1.208l-0.71,4.877l-0.932,2.288l-1.302,1.98l-2.32,0.874l-2.302,1.193l-2,1.763l-0.185,2.446
		l0.716,0.956l-0.321,0.981l-2.586-0.018l-0.932,0.451l-2.308,0.561l-2.709,2.468l-2.16,4.256l-2.142,1.122l5.777,1.986l0.63,1.592
		l2.179,1.74l0.5,0.976l0.457,5.014l-1.672,5.034l-0.907,1.322l-1.154,1.1l-1.049,1.472l-1.969,3.751l-4.678,2.164l-5.993,0.385
		l-2.932-0.201l0.068,0.668l-1.876-0.459l-4.166,1.02l-3.672-0.928l-1.315-0.497l-2.203-1.853l-0.173-1.629l0.012-2.087
		l-0.988-2.251l-1.302-2.011l-1.666-1.27l-4.425,0.544l-1.907-0.782l-0.494-3.315l0.025-2.678l-1.531-2.896l-0.574-1.451
		l-0.913-1.271l-1.308-1l-1.043-1.196l-0.994-2.867l-2.185-1.838l-2.74-0.843l-1.568-2.21l-0.066-0.136l1.124-0.871l1.524-1.476
		v-0.393l-1.734-0.37l-5.308,0.935l-1.105-0.803l0.126-1.268l0.552-2.597l0.13-1.375l0.241-0.321l1.117-0.76l0.315-0.426
		l-0.09-0.502l-0.734-1.762l1.098-0.493l2.682-0.565l1.12-0.651l0.719-0.995l3.095-5.739l1.892-7.772l0.089-0.772l-0.034-0.702
		l0.204-0.513l0.775-0.199l0.559,0.033l0.534,0.116l0.497,0.209l0.454,0.318l1.157,0.441l1.352-0.182l2.194-0.934l0.663-0.547
		l2.006-2.081l0.83-0.278l5.582-2.943l8.344-6.893l0.833-0.401l0.241-0.965L237.476,90.767z"/>
	<path class="st0" d="M174.195,169.722l-0.099-1.091l-0.034-0.856l0.163-0.882l0.676-0.803l0.586-0.889l0.256-1.123l0.13-1.366
		l0.552-1.999l0.753-5.667l0.645-2.205l0.768-1.684v-0.831l0.432-1.025l1.324-1.9l0.29-0.818l0.247-1.062l0.614-0.779l1.62-1.429
		l1.54-1.917l0.935-0.832l2.358-0.703l0.734-0.861l0.546-1.01l0.818-0.822l1.126-0.225l5.206,0.858l2.54,0.72l1.392-0.043
		l1.932-0.647l1.784-1l0.53-0.41l0.066,0.136l1.568,2.21l2.74,0.843l2.185,1.838l0.994,2.867l1.043,1.196l1.308,1l0.913,1.271
		l0.574,1.451l1.531,2.896l-0.025,2.678l0.494,3.315l1.907,0.782l4.425-0.544l1.666,1.27l1.302,2.011l0.988,2.251l-0.012,2.087
		l0.173,1.629l2.203,1.853l1.315,0.497l3.672,0.928l4.166-1.02l1.876,0.459l0.364,1.458l0.586,1.405l0.13,1.008l-0.16,7.094
		l-0.883,1.589l-1.352,1.38l-1.882,0.986l-2.024-0.263l-3.505-2.561l-2.339,0.427l-1.882,1.242l-0.586,2.245l-1.21,1.596
		l-1.432,1.442l-1.265,0.739l-1.333,0.589l-5.456,0.197l-4.845,1.768l0.086,2.613l1.197,2.871l-0.876,0.805l-4.197,2.492
		l-0.562,0.238l-0.796,0.095l-0.815-0.185L206,201.63l-0.611,0.349l-1.197,0.48l-1.277-0.072l-1.814,1.128l-1.981,0.41l-2.024,0.072
		l-2.567-0.682l-1.919-0.312l0.768-1.027l0.651-1.766l0.42-0.568l0.466-0.312l1.157-0.486l0.515-0.354l0.58-0.975l0.238-1.034
		l0.281-2.202l1.546-4.051v-0.005l1.481-4.518l0.432-2.54l-0.114-3.275l-0.13-0.629l-0.271,0.076l-0.315,0.843l-0.444,0.238
		l-0.981-0.353l-0.981-0.61l-0.444-0.539l-0.198-0.345l-1.006-0.442l-0.463-0.317l-0.222-0.362l-0.309-0.881l-0.287-0.496
		l-1.537-2.046l-3.416-7.563l-1.197-1.338l-2.259-0.619l-2.166,0.5l-1.784,1.212l-1.176,1.517l-0.688,2.292l-0.117,0.118
		l-0.327,0.053l-1.327,0.499l-0.185,0.118l-0.555,0.51l0.037,2.482l-0.907,0.921l-1.068,0.003l-1.077-0.567l-0.815-0.992l-0.34-1.25
		L174.195,169.722z"/>
	<path class="st0" d="M191.557,207.437l-0.372-0.483l-0.278-0.867l0.259-1.154l1.442-1.929l1.919,0.312l2.567,0.682l2.024-0.072
		l1.981-0.41l1.814-1.128l1.277,0.072l1.197-0.48L206,201.63l0.592-0.033l0.815,0.185l0.796-0.095l0.562-0.238l4.197-2.492
		l0.876-0.805l0.975-0.899l0.753-0.392l0.821-0.064l7.295,1.193l2.777,0.869l2.08,1.622l0.222-0.449l0.389-0.574l0.167-0.354h0.444
		l0.802,0.943l0.975-0.317l1.481-1.455l1.487-1.073l0.555-0.228l0.759,0.036l0.636,0.31l0.506,0.354l1.142,0.586l3.888,2.616
		l1.389,0.41l18.003-0.138l2.24-0.497l1.308-1.548l-0.716-0.471l0.753-0.717l1.296-0.655l0.907-0.287l0.605-0.369l1.753-1.73
		l0.704-0.542l1.333,1.685l0.876,1.117l0.963,0.915l0.654,1.204l0.08,3.031l-1.055,2.907l-0.562,1.172l0.049,3.833l0.667,1.611
		l1.703,0.079l1.697-0.162l0.562,0.451l-0.556,2.198l0.099,8.46l0.253,0.908l0.494,0.826l0.728,0.841l0.932,0.607l2.351,1.068
		l0.592,0.703l-0.407,0.623l-1.987,2.097l-0.463,0.973l-0.302,1.233l-1.376,2.098l-0.358,0.832l-0.018,1.2l0.389,3.747l-0.105,1.273
		l-0.506,2.119l-0.592,6.149l-0.105,1.098l-0.222,0.717l-0.105,0.674l0.228,0.542l0.321,0.483l0.16,0.587l0.111,1.3l-0.056,1.463
		l-0.611,2.341l-0.148,1.173l0.339,0.967l2.512,2.754l0.642,2.099l-0.444,1.89l-1.79,3.762l-0.284,1.328l-0.259,2.64l-0.272,1.197
		l-1.87,3.336l-0.926,1.214l-1.271,2.981l-0.623,0.678l-0.13,0.189l-1.333,1.101l-0.691,0.267l-0.765,0.148l-0.747-0.059
		l-0.654-0.356l-0.907,0.841l-1.086,2.297l-0.673,0.984l-1.321,0.915l-0.907,0.369l-0.21,0.59l-0.049,0.709l-0.142,0.6l-0.574,0.855
		l-0.864,1.004l-1.018,0.837l-1.049,0.349l-1.308,0.219l-0.555,0.579l-0.296,0.824l-0.525,0.954l-2.783,3.194l-1.049,2.045
		l-0.247,2.566l0.309,0.852l1.117,1.977l0.241,0.777l0.37,4.501l-0.136,1.866l-0.376,1.753l-0.062,1.615l1.271,2.134l0.271,0.634
		l0.407,0.467l0.889,0.18l1.45-0.289l0.518,0.204l0.29,0.942h0.407l0.438-0.363l0.852-0.438l0.821-0.097l0.376,0.665l-0.16,0.469
		l-1.068,1.906v0.389l0.395,0.311l0.105,0.1l0.015,0.014l-0.685,0.258l1.327,1.092l-1.179,0.817L258,330.978l-1.179,1.228
		l-0.238,0.489l-0.287,0.463l-0.225,0.502l-0.126,0.139l-0.549-1.199l-0.105-0.395l-0.077-0.275l-0.154-0.052l-0.219,0.11
		l-0.272,0.217l-0.79,0.765l-0.898,0.078l-0.904-0.088l-0.827,0.279l-0.364,0.538l0.386,0.185l0.62,0.039l0.315,0.1l-0.056,0.382
		l-0.089,0.175l-1.065,1.364l-0.376,0.142l-0.454-0.032l-0.75,0.259l-6.585,5.443l-1.099,1.483l-1.2,2.33l-0.38,0.508l-0.71,0.278
		l-0.796,0.146l-0.611,0.362l-0.148,0.932l-1.018,1.456l-0.321,0.333l-0.568,0.343l-0.204,0.032l-0.253-0.175l-1.71-0.708
		l-1.784-1.061l-1.006-0.22l-0.827-1.058l-0.981-0.877l-1.086-0.725l-1.154-0.589l-2.614-0.493l-2.138-0.403l-0.95-0.741
		l-0.022-1.385l0.824-1.321l2-2.354l1.247-2.837l0.123-0.485l0.287-1.132l-0.117-1.267l-0.139-0.635l0.13-0.515l0.376-0.405
		l0.562-0.308l0.056-0.133l0.018-0.136l-0.018-0.133l-0.056-0.13l-0.392-0.441l-0.151-0.415l0.111-0.389l0.432-0.34l1.225-0.532
		l0.327-0.801l-0.188-2.14l0.222-1.268l0.444-0.655l1.882-1.054l1.574-1.378l0.944-1.528l0.771-1.635l1.04-1.69l0.784-0.629
		l1.916-1.201l0.457-0.815l-0.185-0.881l-1.021-2.342l-0.201-1.208l0.241-1.13l0.889-2.361l0.136-0.992l-0.21-0.551l-0.389-0.315
		l-0.432-0.247l-0.352-0.359l-0.472-1.267l-0.201-0.432l-0.025-2.215l0.13-0.642l0.315-0.455l1.015-1.131l0.179-0.41l-0.589-0.84
		l-3.777-1.759l-0.489-0.466l-1.378-1.312l-0.836-1.132l-0.401-1.091l0.318-1.262l1.737-1.799l0.432-1.212l0.111-0.636l0.244-0.293
		l3.833-2.133l0.793-0.783l0.225-0.692l-0.059-1.403l0.164-0.619l0.41-0.414l1.049-0.389l0.525-0.269l1.66-1.591l0.765-1.034
		l0.321-0.958l-0.318-0.998l-1.404-1.414l-0.324-1.145l0.201-1.025l0.883-2.032l0.278-1.077l-0.318-3.777l0.096-1.216l0.478-1.133
		l1.454-1.69l0.599-0.944l0.58-2.059l0.413-0.91l2.536-2.467l-0.509-1.869l-1.595-1.823l-2.611-2.325l-0.701-0.779l-0.392-0.978
		l-0.142-1.49l0.185-3.709l-1.216-5.289l-0.016-0.391l0.099-0.319l0.022-0.363l-0.21-0.527l-0.346-0.252l-1.012-0.211l-0.392-0.293
		l-0.364-1.884l0.324-2.584l0.901-2.253l1.339-0.859l1.37-0.376l0.805-1.403l0.312-1.796l-0.123-1.544l-0.228-0.833l-0.29-0.632
		l-0.475-0.501l-0.79-0.445l-1.018-0.275l-0.636,0.17l-0.537,0.388l-0.685,0.38l-1.444,0.404l-1.673,0.206l-1.722-0.137
		l-1.648-0.624l-2.623-1.631l-1.299-0.491l-1.688-0.182l-5.292,0.066l-0.349-0.072l-0.312,0.043l-0.571,0.365l-0.228,0.288
		l-0.728,1.273l-2.422,2.915l-2.737,2.601l-0.574,0.827l-0.447-0.164l-0.438-0.635l-0.534-0.609l-0.864-0.494l-4.866-1.883
		l-1.568,0.079l-1.256,0.948l-0.67,1.116l-0.484,0.805l-1.037,0.069l-1.713-0.511l-1.719-0.751l-1.049-0.666l-0.734-0.768
		l-0.179-0.933v-1.028l-0.204-1.053l-0.481-0.83l-1.219-1.523l-0.491-0.796l-0.355-1.091l-0.145-2.073l-0.194-0.995l-0.404-0.742
		L191.557,207.437z"/>
	<path class="st0" d="M419.264,315.085l-0.311-0.435l-3.728-3.398l-0.796-0.98l-0.682-1.211l-2.54-6.338l-2.972-5.264l-1.111-1.216
		l-1.469-0.769l-1.444-0.146l-1.311,0.34l-1.151,0.772l-0.975,1.136l-0.25,0.384l-0.213,0.262l-0.278,0.163l-0.438,0.075
		l-0.966-0.205l-0.525-0.621l-0.404-0.803l-0.605-0.727l-0.886-0.609l-0.947-0.497l-1.003-0.354l-1.04-0.176l-3.468-0.19
		l-0.809-0.221l-3.401-1.556l-0.518-0.332l-0.512-0.475l-0.849-0.607l-3.484-0.945l-1.53-0.143l-1.518-0.38l-0.515-0.044
		l-0.855,0.143l-0.29,0.011l-1.099-0.21l-3.271-1.013l-0.605-0.003l-4.764,0.994l-1.45,0.636l-1.302,0.967l-0.997,1.267
		l-0.602,1.528l-0.018,0.41l0.099,0.252l0.161,0.232l0.13,0.351l0.506,0.211l2.493,1.729l0.364,0.518l-0.013,0.109l-0.055,0.465
		l-0.54,0.468l-0.765,0.268l-2.197,0.382l-1.302,0.484l-1.774,0.286l-0.506,0.182l-0.509,0.32l-0.651,0.801l-0.383,0.976
		l-0.346,2.105l-0.389,1.338l-0.713,0.934l-0.99,0.632l-1.253,0.442l0.019-0.027l0.041-0.059l0.03-0.043l0.13-0.273l-0.037,0.02
		l-0.264,0.139l-0.056-0.065l-1.105-1.77l-0.691,0.271l-0.555,1.231l-0.71,1.119l-0.66,0.365l-0.629,0.02l-0.537-0.336l-0.401-0.705
		l-0.08-0.69l0.222-0.46l0.29-0.382l0.148-0.438l0.13-0.624l0.185-0.565l-0.13-0.44l-0.043-1.213l-0.401-1.064l-0.481-1.311
		l-2.45-1.651l-3.018-1.027l0.592-3.125l-0.703-3.147l-1.395-1.255l-1.265-1.441l-2.142-4.696l3.95-0.895l11.708,0.732l5.061-0.887
		l7.209-0.355l4.715-1.16l4.172-2.435l1.586-1.319l1.37-1.379l0.66-2.273l-0.006-2.66l-0.278-2.098l-0.5-1.975l-0.241-2.024
		l0.599-1.498l0.913-0.047l0.66-0.411l-0.259-0.489l-0.685-0.143l-0.747-1.712l-0.321-1.84l-0.006-1.595l3.191-1.093l1.981-0.134
		l2.432,2.424l1.814,0.577l1.722,0.871l1.512,1.241l1.703,0.972l1.432,1.032l1.605,0.623l1.629-0.409l1.302-1.094l1.784-0.915
		l1.858-0.735l2.172,0.518l5.271,2.517l0.759,0.639l0.858,0.44l1.524,0.02l1.586-0.13l1.932-0.768l1.333-1.932l1.29-1.52l1.5-1.173
		l0.815-1.424l0.364-1.667l1.339-1.075l1.222-1.215l0.018-2.165l-0.327-2.195l0.58-2.018l0.105-1.187l0.019,0.005l0.861,0.669
		l0.772,0.82l0.932,0.748l1.142,0.518l1.024,0.333l0.957,0.462l1.006,0.904l1.716,2.608l0.747,0.579l1.065,0.238l1.855-0.194
		l1.123,0.297l1,0.614l0.728,0.734l2.055,3.129l0.704,0.652l2.006,1.096l0.855,0.657l1.626,1.661l0.895,0.619l0.605,0.179
		l1.154,0.095l0.592,0.217l0.315,0.344l0.697,1.063l0.463,0.403l0.697,0.258l2.444,0.35l2.314,0.714l0.821,0.093l3.435-0.272
		l1.58,0.465l0.589,1.572l0.626,0.637l1.046,0.279l1.173-0.033l1.012-0.277l0.975,0.192l2.996,1.766l1.447,0.528l0.741-0.055
		l0.697-0.192l0.694-0.094l0.741,0.234l1.697,2.854l1.299,0.887l0.395,0.531v0.772v0.219l-0.441,1.05l-0.599,0.088l-0.701-0.231
		l-0.728,0.098l-0.867,1.139l-0.784,1.868l-0.91,3.489l-0.315,2.608l0.645,1.752l1.385,1.347l1.879,1.382l1.04,1.079l-0.037,0.763
		l-0.373,0.834l0.04,1.308l0.568,0.821l2.901,1.82l0.342,0.444l0.525,0.973l0.398,0.369l0.629,0.193l0.624-0.068l-0.948,4.517
		l-2.919,4.01l-1.993,3.613l-1.586,3.964l-2.265,2.563l-3.259,0.597l-6.678-1.009l-1.401-1.252l-1.981-1.335l-2.388-0.36
		l-0.42-2.281l-1.864-2.243l-5.888-3.339l-4.672-3.59l-2.259-0.971l-1.71-1.756l-1.265,0.757l-0.506,0.161l-0.5,0.211l-0.012,0.749
		l-2.32,0.624l-2.37,0.305l-1.852,3.165l-1.105,3.787l-0.747,1.753l-0.488,1.822l-3.857,6.546l-0.966,3.235l-0.222-0.198
		l-0.475-0.587l-0.358-0.668l-0.549-1.903l-2.642-5.878L419.264,315.085z"/>
	<path class="st0" d="M451.69,382.395l-0.357-3.687l0.296-1.388l3.857-9.176l0.272-1.399l0.231-2.888l-0.114-3.742l0.213-3.055
		l-0.04-0.76l-0.173-0.734l-1.416-3.172l-0.225-0.343l-0.435-0.395l-1.015-0.573l-0.469-0.346l-0.426-0.514l-0.92-1.799
		l-1.179-1.776l-0.71-0.754l-2.839-1.803l-1.117-0.398l-9.267-4.885l-1.743-1.6l-1.774-2.121l-0.265-0.489l-0.37-1.241l-0.164-0.395
		l-0.241-0.392l-0.87-1.079l-1.345-2.722l-0.904-1.177l-3.885-2.347l-0.333-0.298l0.966-3.235l3.857-6.546l0.488-1.822l0.747-1.753
		l1.105-3.787l1.852-3.165l2.37-0.305l2.32-0.624l0.012-0.749l0.5-0.211l0.506-0.161l1.265-0.757l1.71,1.756l2.259,0.971l4.672,3.59
		l5.888,3.339l1.864,2.243l0.42,2.281l2.388,0.36l1.981,1.335l1.401,1.252l6.678,1.009l3.259-0.597l2.265-2.563l1.586-3.964
		l1.993-3.613l2.919-4.01l0.948-4.517l1.564-0.171l0.293-0.203l0.269,0.042l0.404,0.673l0.093,0.698l-0.386,1.507l0.04,0.713
		l0.63,0.914l0.972,0.69l1.089,0.468l0.944,0.245l0.441,0.221l0.133,0.263l0.167,0.068l0.546-0.361l0.244-0.445l0.272-1.393
		l0.352-0.583l1.077-0.482l1.275,0.085l1.197,0.492l0.913,0.739l0.364,0.564l0.481,1.708l0.018,0.383l-0.123,0.328l-0.136,0.242
		l-0.049,0.146l0.275,0.231l0.679,0.162l0.244,0.184l0.981,2.219l0.488,0.435l1.043,0.576l0.5,0.488l0.321,0.691l0.219,1.431
		l0.225,0.617l0.407,0.444l1.413,0.785v0.01l0.813,1.658l0.156,0.318l-0.71,4.771l0.66,2.124l2.314,2.143l1.543,2.949l1.327,1.818
		l0.549,1.033l0.753,2.391l0.552,1.001l0.728,0.593l3.114,1.376l1.938,1.285l1.562,1.476l3.888,5.085l1.256,1.32h0.009l5.193,6.337
		l9.921,8.576l1.305,0.695l0.867,0.087l0.691-0.443l0.867-0.892l0.265-0.52l0.145-0.54l0.309-0.378l0.756-0.039l0.713,0.317
		l0.127,0.514l-0.059,0.663l0.136,0.763l0.309,0.43l0.827,0.872l0.213,0.365l-0.046,0.575l-0.484,0.995l-0.049,0.653l0.33,0.94
		l1.802,2.997l2.873,2.699l0.614,1.085l-0.034,0.361l-0.386,0.659l-0.046,0.281l1.009,2.032l-0.015,0.001l-3.721,0.328l-3.382-1.155
		l-1.808-0.273l-1.654-0.723l-2.722-2.821l-1.611-0.915l-1.673-0.237l-0.321,0.956l-0.216,0.972l-0.667,0.601l-0.728,0.512
		l-6.011,0.87l-6.264-0.399l-4.777-1.536l-4.758-2.103l-2.253-0.481l-2.172,0.415l-0.364,2.586l-0.87,1.612l-2.401-0.588
		l-6.53-2.976l-3.672,0.381l-3.018-0.171l-1.648,1.753l-2.24,1.005l-1.5-0.546l-0.722,0.178l-0.704,0.282l-1.79-0.09l-1.419-1.033
		l-1-1.498l-1.37-0.948l-1.438,0.628l-1.401,1.006l-1.827,0.655l-2.006-0.257l-1.327-1.259l-3.092,0.767l-1.703-0.694l-1.259,0.638
		l-0.95,1.014l-1.457-0.336l-1.537-0.565l-1.382,0.576l-0.198,1.767l-1.253,0.875l-1.234,1.418l-0.068,1.123l1.179-0.829
		l1.031,1.033l0.876,3.625l-0.815,1.566l-3.327-0.424L451.69,382.395z"/>
	<path class="st0" d="M452.381,390.172l0.032-0.189l0.404-1.419l0.111-0.716l-0.04-0.751l-0.21-0.68l-0.589-1.297l-0.201-0.684
		l-0.198-2.043l1.8,1.843l3.327,0.424l0.815-1.566l-0.876-3.625l-1.031-1.033l-1.179,0.829l0.068-1.123l1.234-1.418l1.253-0.875
		l0.198-1.767l1.382-0.576l1.537,0.565l1.457,0.336l0.95-1.014l1.259-0.638l1.703,0.694l3.092-0.767l1.327,1.259l2.006,0.257
		l1.827-0.655l1.401-1.006l1.438-0.628l1.37,0.948l1,1.498l1.419,1.033l1.79,0.09l0.704-0.282l0.722-0.178l1.5,0.546l2.24-1.005
		l1.648-1.753l3.018,0.171l3.672-0.381l6.53,2.976l2.401,0.588l0.87-1.612l0.364-2.586l2.172-0.415l2.253,0.481l4.758,2.103
		l4.777,1.536l6.264,0.399l6.011-0.87l0.728-0.512l0.667-0.601l0.216-0.972l0.321-0.956l1.673,0.237l1.611,0.915l2.722,2.821
		l1.654,0.723l1.808,0.273l3.382,1.155l3.721-0.328l0.015-0.001l0.287,0.579l0.151,0.597v0.006l0.531,0.439l1.012,0.513l1.154,0.429
		l1.028,0.181l1.379,0.423l1.654-1.581l0.531,1.036l0.007,1.375l0.091,16.663l0.333,1.52l0.543,1.33l1.355,1.51l1.133,0.692
		l1.203,0.489l0.799,0.068l0.91,0.428l0.247,0.705l-0.278,3.335l0.089,0.711l0.836,2.462l0.926,1.644l1.327,1.03l1.777-0.286
		l-0.006,0.676l0.188,0.28l0.404-0.026l0.592-0.248l0.544-0.419l0.41,0.273l0.753-0.026l0.716,0.109l0.765,1.504l-0.253,1.866
		l-0.771,1.555l-2.901,1.349l-1.549,0.138l-1.352-0.881l-1.006,0.841l-1.487,2.892l-0.148,1.493l0.395,2.051l-0.809,1.465
		l-1.821,0.606l-1.062,0.684l-1.444-0.108l-1.426-0.752l-1.679,0.434l-1.376,1.346l-2.068,0.566l-2.135,0.103l-1.506,0.668
		l-3.253-0.591l-1.068,0.228l-0.253,1.474l-0.395,1.143l-1.179-1.415l-0.821-1.932l-1.191-0.816l-1.413-0.461l-1.889-0.289
		l-1.876,0.145l-0.198,0.376l-0.259,0.402l-1.006,0.193l-0.66,0.422l-0.432,0.704l-0.099,1.603l0.438,1.521l0.062,3.189l0.642,1.562
		l0.099,1.565l-1.185,1.054l-3.08,1.39l-1.74,0.04l-1.691-0.491l-1.71,0.058l-2.586,2.635l-2.759,2.193l-1.555-0.175l-1.487-0.539
		l-3.117,0.385l-2.975-1.67l-1.827,0.019l-0.629-0.452l-0.58-0.51l-3.777-1.54l-3.95-1.122l-3.567-1.698l-4.573-0.457l-0.026,0.003
		l-0.069-0.3l-0.454-0.331l-0.571-0.225l-6.949-1.776l-2.456-0.109l-0.608-0.103l-7.777-2.799l-1.653-0.595l-1.265-0.98
		l-0.935-1.259l-0.589-1.481l-0.222-1.629l0.052-2.77l-0.201-1.347l-0.651-1.186l-0.481-0.424l-1.158-0.648l-0.521-0.291
		l-0.466-0.354l-1.16-1.251l-0.478-0.399l-1.598-0.917l-0.552-0.486l-0.386-0.566l-0.272-0.64l-0.555-1.94l-0.494-1.116
		l-0.629-1.033l-0.802-0.975l-0.994-0.849l-3.351-1.828l-1.049-0.888l-0.636-1.094l-0.299-1.272l-0.065-1.407l0.275-2.673
		l0.639-2.615l0.827-2.322l0.086-0.677l-0.04-0.683l-1.287-5.153l-0.028-0.712L452.381,390.172z"/>
	<path class="st0" d="M502.203,476.66l0.719-0.723l0.364-1.112l0.099-2.621l0.253-1.352l1.469-3.845l0.605-3.18l-0.602-2.939
		l-1.673-2.449l-2.651-1.731l-2.574-0.875l-1.315-0.167l-2.45,0.208l-0.861-0.128l-0.734-0.42l-0.756-0.76l-0.654-0.984
		l-2.358-5.113l-0.713-2.313l0.111-2.198l1.435-1.614l1.247-0.504l0.642-0.363l0.346-0.459l-0.042-0.181l0.026-0.003l4.573,0.457
		l3.567,1.698l3.95,1.122l3.777,1.54l0.58,0.51l0.629,0.452l1.827-0.019l2.975,1.67l3.117-0.385l1.487,0.539l1.555,0.175
		l2.759-2.193l2.586-2.635l1.71-0.058l1.691,0.491l1.74-0.04l3.08-1.39l1.185-1.054l-0.099-1.565l-0.642-1.562l-0.062-3.189
		l-0.438-1.521l0.099-1.603l0.432-0.704l0.66-0.422l1.006-0.193l0.259-0.402l0.198-0.376l1.876-0.145l1.889,0.289l1.413,0.461
		l1.191,0.816l0.821,1.932l1.179,1.415l0.395-1.143l0.253-1.474l1.068-0.228l3.253,0.591l1.506-0.668l2.135-0.103l2.068-0.566
		l1.376-1.346l1.679-0.434l1.426,0.752l1.444,0.108l1.062-0.684l1.821-0.606l0.809-1.465l-0.395-2.051l0.148-1.493l1.487-2.892
		l1.006-0.841l1.352,0.881l1.549-0.138l2.901-1.349l0.771-1.555l0.253-1.866l-0.765-1.504l-0.716-0.109l-0.753,0.026l-0.41-0.273
		l0.061-0.047l0.111-0.47l0.012-0.479l0.272-0.512l1.611-1.036l0.67-0.644l0.244-1.036l1.281-2.173l1.423,0.058l1.037,1.619
		l0.167,2.504l-0.253,2.072l-0.074,0.167l-0.188,0.203l-0.139,0.267v0.354l0.238,0.177l0.398-0.138l0.377-0.206l0.207-0.042
		l0.725,1.689l0.555,0.769l1.031,0.859l1.463,0.81l0.389,0.347l0.278,0.611l0.204,1.399l0.148,0.421l0.642,0.447l0.771,0.096
		l2.037-0.068l2.333,0.26l0.871,0.275l0.156,0.049l1.105,0.556l1.145,0.845l0.512,0.8l0.636,3.336l0.349,0.794l0.159,0.213
		l-0.004,0.013l-0.043,0.14l-0.876,1.619l-1.203,1.206l-1.105,1.404l-0.321,1.206l-0.444,1.076L588.217,437l-1.413,1.039l-1.475,0.7
		l-1.654-0.451l-0.531,0.604l-0.778,0.482l-2.142-0.064l-2.043-0.364l-1.333-0.73l-1.475-0.125l-0.981,1.628l-0.487,1.896
		l0.438,0.912l0.241,0.984l-0.617,0.552l-0.747,0.518l-2.777,2.976l-2.086,3.073l-1.574,3.366l-1.296,1.062l0.173,1.448l1.475,1.018
		l1.179,1.263l-0.895,0.76l-0.654,1.321l1.043,1.657l0.432,1.969l-0.34,0.356l-0.413,0.673l0.012,0.799l0.148,0.783l0.142,1.413
		l-0.685,0.857l-3.061-0.461l-2.117,1.366l-3.543,0.042l-2.209-0.389l-2.024,0.338l-0.636,1.531l-1.247,0.881l-1.679-0.341
		l-1.487-0.761l-1.58-0.213l-1.395,0.552l-0.321,1.545l-0.673,0.198l-0.66,0.508l0.981,2.955l3.401,1.248l-1.882,0.56l-2.111,0.317
		l-1.635,0.622l-1.531,0.946l-2.611,2.598l-2.938,1.862l-1.586-0.685l-3.53-3.891l0.377-1.795l1.222-1.34l-0.562-1.514l-1.173-1.394
		l-1.321,0.003l-1.358,0.33l-1.444,0.061l-1.358,0.522l-1.419-0.802l-1.586,0.511l-2.024,0.455l-3.758,0.077l-0.531-0.136
		l-0.611,0.021l-0.549,0.437l-0.66,0.255l-0.71-0.282l-0.679-0.379l-0.518-0.547l-0.525-0.443l-0.741,0.181l-0.568,0.565
		l-1.389,0.307l-1.401-0.336l-1.426-0.595l-1.617,0.17l-0.889,1.026l-1.407,0.611L502.203,476.66z"/>
	<path class="st0" d="M294.107,302.913l-1.725-0.089l-0.432,0.333l-0.94,1.016l-0.013-0.015l-0.272-0.304l-0.259-0.603l-0.333-0.565
		l-0.123-3.202l1.166-5.043l0.037-1.683l-0.938-1.418l0.444-1.325l1.475,0.394l1.617,0.875l1.345-0.685l1.173-1.259l1.839-0.405
		l1.864,0.072l1.222,1.21l1.012,1.433l0.654,2.101l1.987,1.39l2.561,0.725l2.444,0.972l1.716,0.32l1.746-0.255l0.753,0.322
		l0.815,0.488l1.963-0.169l0.994,1.017l0.296,0.294l0.673,0.128l0.667,0.275l0.284,0.739l-0.018,1.076l0.086,0.271l0.185-0.072
		l1.611,0.286l0.864-0.252l0.852,0.741l1.284,0.052l2.722-2.399l2.376-0.297l2.228-0.725l1.629-0.858l4.894-0.964l3.141,0.957
		l3.018,1.027l2.45,1.651l0.481,1.311l0.401,1.064l0.043,1.213l0.13,0.44l-0.185,0.565l-0.13,0.624l-0.148,0.438l-0.29,0.382
		l-0.222,0.46l0.08,0.69l0.401,0.705l0.537,0.336l0.629-0.02l0.66-0.365l0.71-1.119l0.555-1.231l0.691-0.271l1.105,1.77l0.056,0.065
		l-0.464,0.244l-0.515,0.58l-0.296,0.836l-0.093,1.144l0.494,3.676l-0.29,0.612l-0.592,0.409l-0.531,0.896l-0.685,0.899
		l-1.043,0.406l-0.994-0.273l-1.845-1.204l-1.074-0.276l-0.975,0.201l-5.129,2.316l-0.876,0.519l-0.367,0.668l-3.453,1.907
		l-2.191,2.027l-0.907,0.542l-2.117,0.519l-0.821,0.512l-0.321,0.96l0.343,1.147l0.571,0.904v0.457l-1.321-0.175l-3.067-1.514
		l-0.845-0.24l0.018-0.58l1-4.092l-0.759-2.504l-1.916-0.983l-5.104-0.019l-2.182-0.415l-1.987-1.032l-1.617-1.372l-1.12-1.428
		l-1.784,0.11l-1.781-0.905l-2.993-2.675l-1.401-1.893l-0.451-0.253l-0.225-0.214l-1.805-1.286l-0.565-1.078l-0.222-1.052
		l-0.386-0.9l-1.099-0.617L294.107,302.913z"/>
	<path class="st0" d="M291.01,304.172l-9.03,9.753l-1.225,0.394l-2.305-1.337l-2.336-0.644l-0.562-0.703h-0.373l-0.984,0.943
		l-0.488,1.146l-0.528,2.669l-1.453,4.13l-0.21,1.245l-5.545,1.09l-0.975,0.639l-0.521,1.2l-0.642,0.7l-1.364-0.862v0.953
		l-0.148,0.823l-0.272,0.684l-0.389,0.538l-1.105,0.416l-0.015-0.014l-0.105-0.1l-0.395-0.311v-0.389l1.068-1.906l0.16-0.469
		l-0.376-0.665l-0.821,0.097l-0.852,0.438l-0.438,0.363h-0.407l-0.29-0.942l-0.518-0.204l-1.45,0.289l-0.889-0.18l-0.407-0.467
		l-0.271-0.634l-1.271-2.134l0.062-1.615l0.376-1.753l0.136-1.866l-0.37-4.501l-0.241-0.777l-1.117-1.977l-0.309-0.852l0.247-2.566
		l1.049-2.045l2.783-3.194l0.525-0.954l0.296-0.824l0.555-0.579l1.308-0.219l1.049-0.349l1.018-0.837l0.864-1.004l0.574-0.855
		l0.142-0.6l0.049-0.709l0.21-0.59l0.907-0.369l1.321-0.915l0.673-0.984l1.086-2.297l0.907-0.841l0.654,0.356l0.747,0.059
		l0.765-0.148l0.691-0.267l1.333-1.101l0.13-0.189l0.623-0.678l1.271-2.981l0.926-1.214l1.87-3.336l0.272-1.197l0.259-2.64
		l0.284-1.328l1.79-3.762l0.444-1.89l-0.642-2.099l-2.512-2.754l-0.339-0.967l0.148-1.173l0.611-2.341l0.056-1.463l-0.111-1.3
		l-0.16-0.587l-0.321-0.483l-0.228-0.542l0.105-0.674l0.222-0.717l0.105-1.098l1.697-1.366l1.259-0.924l0.537-0.67l0.555-0.503
		l1.771-0.335l2.925-2.747l1.778-3.752l0.605-2.616l0.648-0.871l1.173-0.386l0.821-0.628l0.636-0.88l0.963-0.762l0.864-0.824
		l0.882-3.886l1.808-1.101l2.16-0.375l1.58-0.101l1.512,0.38l0.815,0.941l0.944,0.797l2.024-0.432l1.839,1.279l1.963-1.075
		l1.716-0.62l0.87,0.692l1.012,0.643l1.697,0.145l1.716-0.144l-0.327,1.089l-0.463,1.014l1.247,0.54l1.216,0.319l0.741,1.277
		l0.512,1.439l1.919,1.855l2.092,1.569l4.369-2.133l3.277-0.994l2.512-2.575l0.778,1.509l2.068,0.904l0.938,0.587l0.006,0.011
		l0.741,0.176l1.845,1.982l1.697,0.851l1.432,1.09l0.938,0.25l0.926-0.216l1.16-0.131l5.104,1.199l1.247,0.52l1.802,1.772
		l2.08,0.364l2.203,0.126l5.925,1.171l0.759-0.219l0.599-0.307l2.086-0.105l1.642-0.737l1.321,0.26l1.302,0.083l1.216,0.986
		l1.475,0.011l0.432-1.39l0.944-0.433l1.006-0.163l1.851,0.283l1.555,1.173l1.358,1.553l1.463,1.283l1.852,0.149l2.623,0.968
		l3.839-0.198l2.382,1.304l1.858,0.757l2.216-0.131l1.926,0.606l1.475,1.407l0.481,4.097l-0.5,4.224l-1.858,0.735l-1.784,0.915
		l-1.302,1.094l-1.629,0.409l-1.605-0.623l-1.432-1.032l-1.703-0.972l-1.512-1.241l-1.722-0.871l-1.814-0.577l-2.432-2.424
		l-1.981,0.134l-3.191,1.093l0.006,1.595l0.321,1.84l0.747,1.712l0.685,0.143l0.259,0.489l-0.66,0.411l-0.913,0.047l-0.599,1.498
		l0.241,2.024l0.5,1.975l0.278,2.098l0.006,2.66l-0.66,2.273l-1.37,1.379l-1.586,1.319l-4.172,2.435l-4.715,1.16l-7.209,0.355
		l-5.061,0.887l-11.708-0.732l-3.95,0.895l2.142,4.696l1.265,1.441l1.395,1.255l0.703,3.147l-0.592,3.125l-3.141-0.957l-4.894,0.964
		l-1.629,0.858l-2.228,0.725l-2.376,0.297l-2.722,2.399l-1.284-0.052l-0.852-0.741l-0.864,0.252l-1.611-0.286l-0.185,0.072
		l-0.086-0.271l0.018-1.076l-0.284-0.739l-0.667-0.275l-0.673-0.128l-0.296-0.294l-0.994-1.017l-1.963,0.169l-0.815-0.488
		l-0.753-0.322l-1.746,0.255l-1.716-0.32l-2.444-0.972l-2.561-0.725l-1.987-1.39l-0.654-2.101l-1.012-1.433l-1.222-1.21
		l-1.864-0.072l-1.839,0.405l-1.173,1.259l-1.345,0.685l-1.617-0.875l-1.475-0.394l-0.444,1.325l0.938,1.418l-0.037,1.683
		l-1.166,5.043l0.123,3.202l0.333,0.565l0.259,0.603l0.272,0.304L291.01,304.172z"/>
	<path class="st0" d="M477.843,543.504l0.83,0.032l3.12-0.737l1.083-0.443l0.426-0.476l0.716-1.306l0.42-0.357l0.592,0.054
		l1.049,0.728l0.768,0.042l0.342-0.271l1.123-1.12l0.478-0.387l0.691-0.228l1.58-0.296l0.614-0.315l0.259-0.435l0.512-1.415
		l0.296-0.602l0.389-0.457l1.392-1.272l1.898-2.539l0.722-1.661l0.154-1.822l-0.858-4.092l0.096-1.885l0.463-2.836l-0.213-0.592
		l-0.648-1.103l-0.093-1.391l0.281-1.399l0.46-1.133l0.278-0.19l0.827-0.188l0.259-0.233l-0.019-0.327l-0.426-0.865l-0.065-0.935
		l0.114-0.37l0.247-0.064l0.938,0.042l0.324-0.128l0.454-1.371l-0.984-1.961l0.583-1.179l2.367-1.514l0.568-0.816l-1.589-0.318
		h-0.006h-0.012l-0.753-0.582l-1.747-2.511l-0.086-0.252l0.019-0.689l-0.136-0.307l-0.259-0.062l-0.775,0.139l-0.315-0.077
		l-1.46-1.515l-1.308-0.256l-0.497-1.026l0.009-1.389l0.234-1.33l0.401-1.252l0.518-0.86l2.438-2.576l1.651-1.351l1.713-1.116
		l0.222-0.099l0.049-1.667l-0.198-1.328l-0.207-0.262l-1.163,0.224l-1.145,0.029l-1.216-0.224l-0.938-0.609l-0.349-1.133
		l0.525-1.368l1.191-0.786l2.783-0.895l2.123-1.348l0.232-0.233l0.204,0.005l1.407-0.611l0.889-1.026l1.617-0.17l1.426,0.595
		l1.401,0.336l1.389-0.307l0.568-0.565l0.741-0.181l0.525,0.443l0.518,0.547l0.679,0.379l0.71,0.282l0.66-0.255l0.549-0.437
		l0.611-0.021l0.531,0.136l3.758-0.077l2.024-0.455l1.586-0.511l1.419,0.802l1.358-0.522l1.444-0.061l1.358-0.33l1.321-0.003
		l1.173,1.394l0.562,1.514l-1.222,1.34l-0.377,1.795l3.53,3.891l1.586,0.685l2.938-1.862l2.611-2.598l1.531-0.946l1.635-0.622
		l2.111-0.317l1.882-0.56l3.055,1.143l2.765,3.491l2.024,0.869l2.098,0.088l1.315,0.437l6.221,4.969l0.327,5.249l0.339,0.046
		l0.395-0.089l-0.056,0.241l-0.136,0.211l1.049,0.727l1.315,0.267l2.444-0.572l0.858,0.828l0.642,1.12l0.821,0.678l0.71,0.959
		l0.605,3.096l0.006,3.147l-1.117,1.873l0.938,2.486l-1.327-0.169l-2.475,0.702l-0.648,0.785l-1.068,0.864l-1.117,1.333
		l-0.105,1.717l-0.901,1.467l-1.802,0.346l-1.796-0.075l-1.21,0.839l-3.036-1.01l-1.679-0.121l-1.58-0.98l-1.203-1.5l-0.056-1.603
		l0.296-1.654l-0.173-0.758l0.068-0.883l0.667-1.579l0.21-1.902l-1.228-1.23l-1.617,0.615l-1.352,1.142l-1.407-0.735l-0.716-1.701
		l-1.487-0.773l-1.753-0.002l-1.432,0.818l-0.858,1.6l-2.561,1.987l-2.74,2.785l-2.487,3.855l0.161,4.542l0.87,1.686l1.191,1.391
		l1.685,0.959l1.475,1.191l1.247,4.95l1.08,1.125l1.241,1.041l1.068,1.56l0.253,1.724l0.006,0.816l0.376,0.731l-0.691,1.593
		l-0.006,0.014l-0.392,0.054l-0.793,0.223l-0.818-0.06l-0.58-0.148l-3.629-2.25l-0.352-0.376l-0.555,1.047l-0.605,3.212
		l-0.401,1.325l-0.883,1.295l-0.95,0.569l-1.142,0.131l-2.095-0.121l-1.435-0.255l-0.929,0.057l-0.645-0.045l-0.306,0.032
		l-0.176,0.252l-0.148,0.97l-0.161,0.288l-1.031,0.048l-2.629-0.909l-1.203-0.212l-0.272,0.677l-0.096,0.709l0.08,0.699l0.287,0.661
		l1.16,0.946l0.664,0.984l0.207,1.185l-0.234,1.53l0.503,1.242l0.824,0.785l2.049,1.305l0.932,1.068l1.524,3.655l0.809,0.915
		l0.957,0.819l0.793,0.899l0.293,1.16l-0.441,1.142l-0.935,0.8l-1.071,0.717l-0.861,0.873l-0.722,0.937l0.111,2.889l-0.876,1.075
		L529.49,570l-3.092-0.79l-1.401-0.06l-1.481,0.596l-1.469,0.153l-1.487-0.339l-0.244-0.134l-1.345-0.742l-5.132-4.511l-1.012-1.511
		l-0.673-1.71l-0.889-1.506l-1.672-0.899l-0.648-0.029l-1.284,0.194l-0.855-0.096l-0.96-0.409l-0.605-0.395l-0.611-0.035
		l-0.935,0.679l-0.441-1.093l-0.913-0.961l-1.077-0.473l-0.904,0.361l-0.349-0.489l-0.395-0.433l-0.46-0.374l-0.481-0.317
		l-1.666,1.187l-0.883,0.501l-0.994,0.27l-1.419,0.947l-1.666,0.571l-1.774,0.255l-1.694-0.019l-0.969-0.124l-0.602-0.242
		l-0.497-0.466l-1.524-2.145l-0.438-0.274l-0.861-0.272l-0.41-0.22l-1.099-1.085l-3.552-5.412l-0.565-1.277l-0.222-1.427
		L477.843,543.504z"/>
	<path class="st0" d="M342.983,117.185l0.562,2.449l0.41,1.121l0.278,0.576l0.284,0.44l0.472,0.205l0.873-0.119l1.497,0.658
		l0.917,1.078l1.349,2.883l1.858,4.104l1.105,1.873l1.706,2.147l0.88,0.862l0.38,0.284l0.633,0.284l1.08,0.149l0.608,0.158
		l0.503,0.264l0.802,0.591l0.586,0.208l0.697,0.013l0.432-0.131l0.734-0.222l0.537-0.053l0.972,0.277l3.37,1.822l1.663,0.561
		l0.636,0.086l0.327,0.007l1.512-0.426l0.065,0.357l-0.123,0.353l-0.191,0.315l-3.098,1.663l-3.438,1.1l-1.512,0.79l-1.407,0.995
		l-0.753,2.594l-0.253,3.032l0.302,3.835l-0.846,3.692l-1.395,1.634l0.741,1.762l1.16,1.75l1.049,0.344l1.111,0.036l-0.37,0.917
		l-0.401,0.774l0.302,2.307l-0.111,2.475l-1.234,1.686l-4.036,4.013l-1.981,2.964l0.765,1.483l2.111,2.575l0.376,0.823l-0.555,0.741
		l-0.747,0.529l-0.395,0.841l0.037,0.976l-0.247,1.403l-0.191,4.523l0.284,2.716l-0.772,1.41l-1.173,1.007l-2.993,0.21l-1.438,0.605
		l-1.296,0.935l-1.821,0.865l-1.599,1.081l-0.092,2.999l-0.401,2.975l-2.197,0.474l-2.426-0.13l0.247,1.498l-0.778,1.157l-2.74,2.52
		l-3.561,2.442l-1.154,1.16l-0.987,1.361l-2.716,2.092l-0.623,3.349l0.765,3.261l1.654,1.449l1.432,1.74l1.24,3.619l-2.512,2.575
		l-3.277,0.994l-4.369,2.133l-2.092-1.569l-1.919-1.855l-0.512-1.439l-0.741-1.277l-1.216-0.319l-1.247-0.54l0.463-1.014
		l0.327-1.089l-1.716,0.144l-1.697-0.145l-1.012-0.643l-0.87-0.692l-1.716,0.62l-1.963,1.075l-1.839-1.279l-2.024,0.432
		l-0.944-0.797l-0.815-0.941l-1.512-0.38l-1.58,0.101l-2.16,0.375l-1.808,1.101l-0.882,3.886l-0.864,0.824l-0.963,0.762l-0.636,0.88
		l-0.821,0.628l-1.173,0.386l-0.648,0.871l-0.605,2.616l-1.778,3.752l-2.925,2.747l-1.771,0.335l-0.555,0.503l-0.537,0.67
		l-1.259,0.924l-1.697,1.366l0.592-6.149l0.506-2.119l0.105-1.273l-0.389-3.747l0.018-1.2l0.358-0.832l1.376-2.098l0.302-1.233
		l0.463-0.973l1.987-2.097l0.407-0.623l-0.592-0.703l-2.351-1.068l-0.932-0.607l-0.728-0.841l-0.494-0.826l-0.253-0.908l-0.099-8.46
		l0.556-2.198l-0.562-0.451l-1.697,0.162l-1.703-0.079l-0.667-1.611l-0.049-3.833l0.562-1.172l1.055-2.907l-0.08-3.031l-0.654-1.204
		l-0.963-0.915l-0.876-1.117l-1.333-1.685l2.413-0.655l4.857-0.44l2.142-0.601l1.993-1.387l3.08-3.484l1.45-1.242l1.061-0.371
		l3.277,0.371l0.981-0.283l3.32-1.928l1.969-0.202l0.969-1.947l1.592-1.467l0.426-2.173l-0.846-2.065l-1.802-2.363l0.123-2.724
		l0.821-1.741l-0.173-1.772l-1.031-0.951l-0.802-1.118l0.185-1.904l2.617-5.737l1.16-3.437l1.537-3.374l0.21-1.505l4.067-0.607
		l2.08-2.257l0.901-2.987l0.086-1.241l-0.42-1.102l-0.512-0.828l0.074-0.85l-0.29-1.532l0.957-2.542l-0.037-1.356l-0.518-1.637
		l-1.919-2.554l-0.062-1.759l2.197,1.076l1.907,1.214l1.79,0.086l1.734,0.317l0.741,0.752l0.253,1.247l3.29,1.283l3.438-4.167
		l1.296-0.851l1.493-0.365l2.018,0.321l0.957-1.948l0.852-0.511l3.999-1.656l0.056-0.364l0.247-0.506l0.531-0.172l1.722-0.175
		l0.543-1.02l0.018-1.691l0.444-3.035l0.605-1.17l0.889-0.005l0.975,0.308l4.802-0.366L342.983,117.185z"/>
	<path class="st0" d="M443.792,149.017l-0.408,1.503l-3.857,5.317l-1.308,1.048l-1.487,0.468l-1.561-0.27l-1.475-1.176l-1.265,2.497
		h-0.006l-3.419,2.355l-0.395,1.195l1.895,1.215l2.438,0.612l8.548-0.191l0.827,0.461l1.37,1.916l0.963,0.696l2.268,0.894
		l0.867,0.688l0.222,0.505l0.182,0.722l0.096,0.745l-0.04,0.571l-0.404,0.864l-0.463,0.138l-0.494-0.026l-0.506,0.388l-0.228,0.837
		l-0.092,1.296l0.062,1.293l0.241,0.834l2.018,1.028l2.552-0.523l2.7-0.908l2.41-0.125l5.305,2.905l0.059,0.478l-0.33,0.682
		l0.086,1.428l0.805,1.203l2.299,1.521l0.451,0.999l-0.194,0.253l-0.818,0.164l-0.21,0.154l-0.018,0.391l0.167,0.557l0.111,1.178
		l0.188,0.772l0.105,0.778l-0.222,0.875l-0.227,0.199l-0.597,0.522l-0.79,0.121l-1.765-0.207l-1.139,0.181l-0.287,0.312
		l-0.111,0.547l-0.552,0.885l-1.349,1.037l-3.265,1.956l-1.126,1.434l-0.373,1.175l0.309,0.353l1.765,0.113l1.133,0.381l0.441,0.354
		l0.015,0.577l-0.108,1.053l-0.602,2.001l-1.182,0.885l-1.463,0.661l-1.432,1.323l-1.133,0.348l-0.812,0.095l-0.747,0.205
		l-0.938,0.684l-0.771,0.854l-0.494,0.841l-1.895,5.066l-0.525,0.675l-0.555,0.061l-1.025-0.601l-0.512-0.131l-0.537,0.174
		l-0.92,0.624l-0.518,0.223l-1.395,0.162l-1.012-0.218l-3.388-2.051l-1.512-0.673l-0.5-0.319l-0.845-0.863l-0.568-0.786
		l-0.697-0.536l-1.197-0.138l-1.083,0.282l-2.783,1.784l-1.089-1.84l-2.083-0.716l-0.787-0.687l-1.717,0.471l-0.007-0.012
		l-0.006-0.01l-0.117-2.165l-0.562-1.877l-0.136-1.536l1.364-4.299l-0.253-3.025l-0.574,1.075l-0.216,1.386l-1.061,0.925
		l-1.271,0.512l-2.265-0.185l-1.913-1.303l-0.907,0.791l-0.679,1.053l-0.278,1.22l-0.815,0.705l-5.116,1.417l-0.815-0.321
		l-0.599-0.38l-1.185-2.034l-0.488-0.528l-1.549-0.774l0.617-1.709l0.451-1.857l-0.352-1.492l0.062-1.518l-2.321-3.053l-3.197-1.941
		l-1.648-0.016l-1.561,0.233l-2.753,2.079l-0.438,2.123l-0.08,1.856l-1.623,0.241l-1.74-0.842l-1.358,1.704l-2.043,0.545
		l-1.666,0.199l-1.648,0.558l-1.296,1.055l-1.531,0.425l-3.104-0.943l-3.018-0.272l-1.265-1.006l-1.296-0.75l-2.944,1.25
		l-1.592-0.919l-1.241-1.316l-2.74,0.18l-2.642,0.814l-0.284-2.716l0.191-4.523l0.247-1.403l-0.037-0.976l0.395-0.841l0.747-0.529
		l0.555-0.741l-0.376-0.823l-2.111-2.575l-0.765-1.483l1.981-2.964l4.036-4.013l1.234-1.686l0.111-2.475l-0.302-2.307l0.401-0.774
		l0.37-0.917l-1.111-0.036l-1.049-0.344l-1.16-1.75l-0.741-1.762l1.395-1.634l0.846-3.692l-0.302-3.835l0.253-3.032l0.753-2.594
		l1.407-0.995l1.512-0.79l3.438-1.1l3.098-1.663l0.191-0.315l0.123-0.353l-0.065-0.357l0.105-0.03l1.216-0.693l0.42-0.396
		l0.182-0.403l0.315-0.165l0.827,0.317l0.725,0.73l1.092,2.136l0.642,0.828l0.463,0.346l0.475,0.264l0.515,0.152l0.605,0.03
		l0.003,0.01l3.691,0.795l1.16,0.673l2.308,2.524l1.308,1.154l0.191,0.254l0.253,0.158l0.654,0.112l0.543-0.073l0.728-0.247
		l0.648-0.333l0.346-0.317l-0.031-0.518l-0.605-1.24l-0.074-0.604l0.29-0.838l0.37-0.251l0.512-0.069l0.737-0.261l1.207-0.766
		l0.241-0.436l-0.204-0.617l-0.13-1.307l0.222-1.03l0.503-1.294l0.62-1.192l0.583-0.707l0.663-0.228l1.21,0.168l0.605-0.05
		l0.534-0.294l0.879-0.799l0.484-0.307l4.391-1.42l1.197-0.542l0.605-0.155l0.697,0.023l2.185-0.367l2.753-3.244l2.126-0.152
		l0.41,0.225l0.901,0.681l0.5,0.248l0.565,0.096l1.355,0.026l0.636,0.096l1.7,0.631l0.441,0.284l0.349,0.499l0.623,1.318l0.21,0.32
		l0.417-0.02l1.345-0.38l0.565-0.043l0.54,0.175l0.589,0.297l0.534,0.37l0.441,0.38l0.713,0.971l0.957,1.965l0.784,0.948
		l0.497,0.343l0.935,0.357l0.457,0.317l0.321,0.472l0.497,1.109l0.441,0.472l1.21,0.37l1.364-0.036l1.222,0.139l0.809,0.891
		l0.568,2.006l0.994,1.029l3.08,1.491l3.394,1.161l0.864,0.897L443.792,149.017z"/>
	<path class="st0" d="M419.078,209.073l-2.51,0.688l-1.305,0.018l-0.302,0.318l-0.404,0.415l-0.435,0.945l-0.475,0.388l-1.225,0.188
		l-1.136-0.388l-2.864-1.484l-0.685-0.198l-0.556,0.242l-0.346,1.004l0.148,0.785l1.176,3.304l0.691,0.911l1.867,1.133l0.679,0.572
		l0.383,1.03l0.077,1.089l0.194,1.039l0.685,0.869l0.009,0.007l-0.25,0.748l-0.518,0.277l-0.642,0.144l-0.599,0.363l-0.386,0.679
		l-0.247,1.463l-0.201,0.632l-0.463,0.893l-0.031,0.029l-0.188-0.237l-0.879,0.106l-1.416,0.51l-1.355,0.713l-1.265,0.298
		l-0.703,0.608l-1.179,1.809l-0.92,0.695l-2.142,0.943l-0.793,0.613l-0.497,1.094l0.605,0.289l1.086-0.029l0.95,0.121l0.79,1.509
		l0.302,0.445l0.42,0.307l1.503,0.794l1.768,1.284h0.074l1.265-0.541l1.253-0.065l1.228,0.292l6.628,2.995l2.395,1.663l0.614,0.609
		l0.216,1.258l0.006,1.13l0.525,0.532l1.728-0.514l1.197,0.301l-0.105,1.187l-0.58,2.018l0.327,2.195l-0.018,2.165l-1.222,1.215
		l-1.339,1.075l-0.364,1.667l-0.815,1.424l-1.5,1.173l-1.29,1.52l-1.333,1.932l-1.932,0.768l-1.586,0.13l-1.524-0.02l-0.858-0.44
		l-0.759-0.639l-5.271-2.517l-2.172-0.518l0.5-4.224l-0.481-4.097l-1.475-1.407l-1.926-0.606l-2.216,0.131l-1.858-0.757
		l-2.382-1.304l-3.839,0.198l-2.623-0.968l-1.852-0.149l-1.463-1.283l-1.358-1.553l-1.555-1.173l-1.851-0.283l-1.006,0.163
		l-0.944,0.433l-0.432,1.39l-1.475-0.011l-1.216-0.986l-1.302-0.083l-1.321-0.26l-1.642,0.737l-2.086,0.105l-0.599,0.307
		l-0.759,0.219l-5.925-1.171l-2.203-0.126l-2.08-0.364l-1.802-1.772l-1.247-0.52l-5.104-1.199l-1.16,0.131l-0.926,0.216l-0.938-0.25
		l-1.432-1.09l-1.697-0.851l-1.845-1.982l-0.741-0.176l-0.006-0.011l-0.938-0.587l-2.068-0.904l-0.778-1.509l-1.24-3.619
		l-1.432-1.74l-1.654-1.449l-0.765-3.261l0.623-3.349l2.716-2.092l0.987-1.361l1.154-1.16l3.561-2.442l2.74-2.52l0.778-1.157
		l-0.247-1.498l2.426,0.13l2.197-0.474l0.401-2.975l0.092-2.999l1.599-1.081l1.821-0.865l1.296-0.935l1.438-0.605l2.993-0.21
		l1.173-1.007l0.772-1.41l2.642-0.814l2.74-0.18l1.241,1.316l1.592,0.919l2.944-1.25l1.296,0.75l1.265,1.006l3.018,0.272
		l3.104,0.943l1.531-0.425l1.296-1.055l1.648-0.558l1.666-0.199l2.043-0.545l1.358-1.704l1.74,0.842l1.623-0.241l0.08-1.856
		l0.438-2.123l2.753-2.079l1.561-0.233l1.648,0.016l3.197,1.941l2.321,3.053l-0.062,1.518l0.352,1.492l-0.451,1.857l-0.617,1.709
		l1.549,0.774l0.488,0.528l1.185,2.034l0.599,0.38l0.815,0.321l5.116-1.417l0.815-0.705l0.278-1.22l0.679-1.053l0.907-0.791
		l1.913,1.303l2.265,0.185l1.271-0.512l1.061-0.925l0.216-1.386l0.574-1.075l0.253,3.025l-1.364,4.299l0.136,1.536l0.562,1.877
		l0.117,2.165l0.006,0.01L419.078,209.073z"/>
	<path class="st0" d="M594.387,429.665l0.36,0.484l0.737,0.681l0.913,0.569l0.808,0.228l0.833,0.138l0.935,0.27l1.552,1.047
		l2.216,2.846l1.376,1.233l1.666,0.504l1.734-0.199l3.32-0.857l1.166-0.039l0.275,0.302l-0.133,0.713l-0.008,0.118l-0.069,1.066
		l0.275,0.71l0.407,0.494l0.071,0.555l-0.719,0.873l-0.876,0.767l-1.635,2.966l-0.901,1.04l-0.864,0.42l-2.277,0.401l-1.068,0.417
		l-4.144,2.708l-0.503,0.138l-0.546-0.093l-0.552-0.269l-0.611-0.183l-0.737,0.167l-0.657,0.674l-1.497,3.368l-0.083,1.292
		l0.685,0.914l3.286,1.937l0.62,0.663l0.259,0.894l0.272,2.572l0.272,0.981l0.574,0.87l0.997,0.771l2.277,1.173l0.768,0.682
		l3.16,5.745l0.734,0.466l0.42-0.246l0.377-0.556l0.602-0.44l0.429-0.013l1.188,0.304l0.349-0.106l0.299-0.224l0.293,0.067
		l0.327,0.754l0.185,0.472l0.259,0.245l0.343,0.002l0.432-0.242l0.818,0.424l0.161,1.233l-0.031,1.462l0.256,1.108l1.117,0.658
		l2.564-0.392l1.049,0.28l0.191,0.507l0.08,0.212l0.13,2.378l0.401,1.107l0.71,0.789l2.663,2.028l0.867,0.955l0.389,0.859
		l0.015,0.953l-0.451,2.938l-0.17,0.379l-0.389,0.118l-0.29-0.297l-0.352-0.161l-0.565,0.529l-0.219,0.574l-0.136,2.024l-0.33,1.177
		l-0.62,0.922l-0.37,0.36l-0.849,0.649l-0.268,0.467l0.018,0.607l0.549,1.115l-0.055,0.663l-0.66,0.676l-0.92,0.089l-1.635-0.284
		l-0.969,0.096l-0.992,0.297l0.001-0.016l0.068-0.772l0.957-1.73l-0.556-1.485l-1.302-1.13l-1.66-3.368l-2.604-0.409l-1.068,1.154
		l-1.278,0.699l-1.858-0.457l-1.833-0.748l-1.401-0.86l-1.068-1.198l-1.049-1.463l-1.136-1.183l-4.147-1.403l-4.252,0.305
		l-1.401,1.043l-1.456,0.756l-1.672-0.393l-1.333,0.069l-1.284,0.326l-1.944,0.817l-2.08,0.061l-1.722-0.438l-1.543-1.083
		l-1.938-0.353l-1.938,0.229l-1.574,0.955l-1.278,1.132l-0.241,0.833l-0.13,0.828l-0.506,0.751l-0.599,0.708l-0.741,1.434
		l-1.308,0.566l-0.395,0.089l-0.339-0.046l-0.327-5.249l-6.221-4.969l-1.315-0.437l-2.098-0.088l-2.024-0.869l-2.765-3.491
		l-3.055-1.143l-3.401-1.248l-0.981-2.955l0.66-0.508l0.673-0.198l0.321-1.545l1.395-0.552l1.58,0.213l1.487,0.761l1.679,0.341
		l1.247-0.881l0.636-1.531l2.024-0.338l2.209,0.389l3.543-0.042l2.117-1.366l3.061,0.461l0.685-0.857l-0.142-1.413l-0.148-0.783
		l-0.012-0.799l0.413-0.673l0.34-0.356l-0.432-1.969l-1.043-1.657l0.654-1.321l0.895-0.76l-1.179-1.263l-1.475-1.018l-0.173-1.448
		l1.296-1.062l1.574-3.366l2.086-3.073l2.777-2.976l0.747-0.518l0.617-0.552l-0.241-0.984l-0.438-0.912l0.487-1.896l0.981-1.628
		l1.475,0.125l1.333,0.73l2.043,0.364l2.142,0.064l0.778-0.482l0.531-0.604l1.654,0.451l1.475-0.7l1.413-1.039l2.172-0.671
		l0.444-1.076l0.321-1.206l1.105-1.404l1.203-1.206l0.876-1.619l0.043-0.14L594.387,429.665z"/>
	<path class="st0" d="M616.266,500.395l-1.708,0.513l-1.117,0.101l-0.568,0.54l-0.052,0.839l0.401,0.982l-0.09,0.917l0.241,0.818
		l0.478,0.684l0.707,0.53l0.938,0.49l3.592,2.783l0.509,0.529l-0.17,0.65l-0.879,1.196l-2.493,2.421l-0.475,0.828l0.204,0.956
		l0.599,0.962l0.296,0.898l-0.67,0.783l0.38,0.597l0.611,0.498l0.454,0.589l-0.111,0.871l-0.805,0.688l-1.978,2.912l-0.929,0.461
		l-0.386,0.408l-0.475,1.397l-0.201,0.348l-0.429,0.591l-0.176,0.499l-0.034,0.488l0.071,0.521v0.524l-0.185,0.474l-0.771,0.634
		l-0.685-0.029l-1.392-0.626l-1.12-0.239l-0.586-0.228l-1.126-1.025l-1.614-1.172l-1.099-0.08l-0.901,0.812l-1.055,1.505
		l-0.302,0.268l-0.691,0.421l-0.238,0.301l-0.089,0.408l-0.127,1.237l-0.63,1.251l-0.509,0.279l-0.91-0.154h-0.009l-0.012-0.006
		l-0.006-0.003l-0.892-0.003l-0.484,0.735l-0.336,1.055l-0.484,0.964l-1.629,1.479l-1.83,1.228l-1.327,0.422l-0.639-0.33
		l-0.509-0.734l-0.978-0.782l-0.753-0.331l-0.185,0.051l-0.04,0.311l-1.743,2.163l-1.16,1.832l-0.256,0.148l-0.75,0.162
		l-0.654,1.573l-0.025,0.382l-0.216,0.317l-0.747,0.207l-0.605-0.108l-1.117-0.702l-0.543-0.185l-0.633,0.048l-0.346,0.175
		l-0.281,0.268l-2.314,1.312l-0.895-0.032l-0.833-0.33l-0.83-0.595l-1.571-1.586l-2.092-2.983l-0.463-0.918l-0.278-0.387
		l-0.463-0.491l-0.259-0.214l-4.345-1.332l-0.737-0.413l-0.997-0.558l-1.176-1.809l-0.614-0.373l-1.37-0.304l-0.518-0.319
		l-0.21-0.59l-0.315-1.948l-0.238-0.784l-0.75-1.175l-0.355-0.33l-1.281,1.194l-0.435,0.217l-0.395,0.037l-0.293,0.174l-0.099,0.606
		l0.022,0.593l0.133,0.441l0.259,0.301l0.438,0.159v0.383l-0.92-0.054l-0.762-0.198l-0.651-0.073l-0.555,0.325l-0.13,0.26
		l-0.099,0.443l0.056,0.414l0.691,0.384l-0.259,0.422l-0.438,0.37l-0.238,0.042l-0.614,1.203l-1.518,0.634l-3.212,0.443l0.006-0.014
		l0.691-1.593l-0.376-0.731l-0.006-0.816l-0.253-1.724l-1.068-1.56l-1.241-1.041l-1.08-1.125l-1.247-4.95l-1.475-1.191l-1.685-0.959
		l-1.191-1.391l-0.87-1.686l-0.161-4.542l2.487-3.855l2.74-2.785l2.561-1.987l0.858-1.6l1.432-0.818l1.753,0.002l1.487,0.773
		l0.716,1.701l1.407,0.735l1.352-1.142l1.617-0.615l1.228,1.23l-0.21,1.902l-0.667,1.579l-0.068,0.883l0.173,0.758l-0.296,1.654
		l0.056,1.603l1.203,1.5l1.58,0.98l1.679,0.121l3.036,1.01l1.21-0.839l1.796,0.075l1.802-0.346l0.901-1.467l0.105-1.717l1.117-1.333
		l1.068-0.864l0.648-0.785l2.475-0.702l1.327,0.169l-0.938-2.486l1.117-1.873l-0.006-3.147l-0.605-3.096l-0.71-0.959l-0.821-0.678
		l-0.642-1.12l-0.858-0.828l-2.444,0.572l-1.315-0.267l-1.049-0.727l0.136-0.211l0.056-0.241l1.308-0.566l0.741-1.434l0.599-0.708
		l0.506-0.751l0.13-0.828l0.241-0.833l1.278-1.132l1.574-0.955l1.938-0.229l1.938,0.353l1.543,1.083l1.722,0.438l2.08-0.061
		l1.944-0.817l1.284-0.326l1.333-0.069l1.672,0.393l1.456-0.756l1.401-1.043l4.252-0.305l4.147,1.403l1.136,1.183l1.049,1.463
		l1.068,1.198l1.401,0.86l1.833,0.748l1.858,0.457l1.278-0.699l1.068-1.154l2.604,0.409l1.66,3.368l1.302,1.13l0.556,1.485
		l-0.957,1.73l-0.068,0.772L616.266,500.395z"/>
</g>
<g id="Copyright">
	<text transform="matrix(1 0 0 1 681.6426 577.5916)" class="st1 st2">© Vemaps.com</text>
</g>
</svg>
