<?xml version="1.0" encoding="utf-8"?>
<!-- Generator: Adobe Illustrator 27.2.0, SVG Export Plug-In . SVG Version: 6.00 Build 0)  -->
<svg version="1.1" id="Layer_1" xmlns="http://www.w3.org/2000/svg" xmlns:xlink="http://www.w3.org/1999/xlink" x="0px" y="0px"
	 viewBox="0 0 638.33 213.5" style="enable-background:new 0 0 638.33 213.5;" xml:space="preserve">
<style type="text/css">
	.st0{fill:#020203;}
</style>
<g>
	<polygon class="st0" points="151.67,28.11 81.79,80.28 104.21,80.28 151.67,45.15 199.4,80.28 221.29,80.28 	"/>
	<polygon class="st0" points="151.67,94.34 96.28,156.29 96.28,90.17 81.79,90.17 81.79,168.91 104.21,168.91 151.81,116.55 
		199.4,168.91 221.29,168.91 	"/>
	<polygon class="st0" points="7.5,56.47 20.38,56.47 20.38,19.19 57.29,19.19 57.29,6.31 7.5,6.31 	"/>
	<polygon class="st0" points="581.04,6.31 581.04,19.19 617.95,19.19 617.95,56.47 630.83,56.47 630.83,6.31 	"/>
	<polygon class="st0" points="617.95,194.31 581.04,194.31 581.04,207.19 630.83,207.19 630.83,157.03 617.95,157.03 	"/>
	<polygon class="st0" points="20.38,157.03 7.5,157.03 7.5,207.19 57.29,207.19 57.29,194.31 20.38,194.31 	"/>
	<g>
		<path class="st0" d="M279.98,94.74v-4.31h25.34c2.48,0,3.64-0.95,3.64-2.69v-3.68c0-1.74-1.16-2.69-3.64-2.69h-17.14
			c-6.62,0-9.15-2.86-9.15-7.04v-1.7c0-4.18,2.53-7.04,9.15-7.04h24.68v4.31h-24.68c-2.48,0-3.64,0.95-3.64,2.69v1.78
			c0,1.74,1.16,2.69,3.64,2.69h17.14c6.62,0,9.15,2.86,9.15,7.04v3.6c0,4.18-2.53,7.04-9.15,7.04H279.98z"/>
		<path class="st0" d="M327.25,94.74V65.59h29.98v4.31h-24.47v7.29h23.23v4.31h-23.23v8.94h24.47v4.31H327.25z"/>
		<path class="st0" d="M386.87,94.74L367.5,65.59h6.25l15.24,23.48l15.07-23.48h6.09l-19.25,29.15H386.87z"/>
		<path class="st0" d="M421.07,94.74V65.59h29.98v4.31h-24.47v7.29h23.23v4.31h-23.23v8.94h24.47v4.31H421.07z"/>
		<path class="st0" d="M499.9,94.74l-31.1-22.69v22.69H464V65.59h4.76l29.03,21.66V65.59h4.8v29.15H499.9z"/>
	</g>
	<g>
		<path class="st0" d="M279.98,136.84v-4.31h25.34c2.48,0,3.64-0.95,3.64-2.69v-3.68c0-1.74-1.16-2.69-3.64-2.69h-17.14
			c-6.62,0-9.15-2.86-9.15-7.04v-1.7c0-4.18,2.53-7.04,9.15-7.04h24.68V112h-24.68c-2.48,0-3.64,0.95-3.64,2.69v1.78
			c0,1.74,1.16,2.69,3.64,2.69h17.14c6.62,0,9.15,2.86,9.15,7.04v3.6c0,4.18-2.53,7.04-9.15,7.04H279.98z"/>
		<path class="st0" d="M340.01,136.84V112h-15.28v-4.31h35.65V112h-14.86v24.84H340.01z"/>
		<path class="st0" d="M381.28,136.84c-6.62,0-9.15-2.86-9.15-7.04v-15.07c0-4.18,2.53-7.04,9.15-7.04h19.25
			c6.62,0,9.15,2.86,9.15,7.04v15.07c0,4.18-2.53,7.04-9.15,7.04H381.28z M404.18,114.69c0-1.74-1.16-2.69-3.64-2.69h-19.25
			c-2.48,0-3.64,0.95-3.64,2.69v15.15c0,1.74,1.16,2.69,3.64,2.69h19.25c2.48,0,3.64-0.95,3.64-2.69V114.69z"/>
		<path class="st0" d="M459.04,136.84l-31.1-22.69v22.69h-4.8v-29.15h4.76l29.03,21.66v-21.66h4.8v29.15H459.04z"/>
		<path class="st0" d="M475.39,136.84v-29.15h29.98V112h-24.47v7.29h23.23v4.31h-23.23v8.94h24.47v4.31H475.39z"/>
		<path class="st0" d="M518.69,136.84v-4.31h25.34c2.48,0,3.64-0.95,3.64-2.69v-3.68c0-1.74-1.16-2.69-3.64-2.69h-17.14
			c-6.62,0-9.15-2.86-9.15-7.04v-1.7c0-4.18,2.53-7.04,9.15-7.04h24.68V112h-24.68c-2.48,0-3.64,0.95-3.64,2.69v1.78
			c0,1.74,1.16,2.69,3.64,2.69h17.14c6.62,0,9.15,2.86,9.15,7.04v3.6c0,4.18-2.53,7.04-9.15,7.04H518.69z"/>
	</g>
	<g>
		<path class="st0" d="M282.03,159.66c0.59,0,1.46,0.04,2.11,0.48c0.51,0.34,0.95,1,0.95,1.93c0,1.33-0.87,2.3-2.19,2.39l2.76,3.88
			h-1.17l-2.64-3.8h-0.25v3.8h-0.96v-8.68H282.03z M281.6,163.68h0.61c1.2,0,1.91-0.57,1.91-1.59c0-0.48-0.14-0.96-0.69-1.27
			c-0.39-0.22-0.83-0.25-1.25-0.25h-0.59V163.68z"/>
		<path class="st0" d="M294.27,160.57h-3.54v2.58h3.43v0.91h-3.43v3.37h3.54v0.91h-4.5v-8.68h4.5V160.57z"/>
		<path class="st0" d="M303.41,165.89h-3.69l-1.04,2.45h-1.07l3.99-9.09l3.89,9.09h-1.07L303.41,165.89z M303.04,164.98l-1.46-3.47
			l-1.48,3.47H303.04z"/>
		<path class="st0" d="M310.28,159.66v7.77h2.39v0.91h-3.36v-8.68H310.28z"/>
		<path class="st0" d="M326.71,160.57h-3.54v2.58h3.43v0.91h-3.43v3.37h3.54v0.91h-4.5v-8.68h4.5V160.57z"/>
		<path class="st0" d="M334.96,161.38c-0.12-0.23-0.31-0.49-0.51-0.65c-0.17-0.13-0.48-0.3-0.98-0.3c-0.86,0-1.46,0.53-1.46,1.34
			c0,0.34,0.09,0.53,0.33,0.75c0.26,0.26,0.59,0.4,0.91,0.55l0.83,0.36c0.51,0.22,0.97,0.46,1.34,0.82
			c0.44,0.44,0.62,0.95,0.62,1.57c0,1.6-1.18,2.67-2.74,2.67c-0.57,0-1.29-0.12-1.89-0.7c-0.43-0.42-0.69-1.01-0.81-1.53l0.94-0.26
			c0.07,0.45,0.27,0.85,0.52,1.11c0.38,0.38,0.81,0.48,1.25,0.48c1.18,0,1.74-0.85,1.74-1.72c0-0.39-0.12-0.73-0.43-1.01
			c-0.25-0.23-0.59-0.39-1.04-0.6l-0.78-0.36c-0.34-0.16-0.77-0.34-1.16-0.72c-0.38-0.36-0.6-0.77-0.6-1.42
			c0-1.34,1.03-2.24,2.43-2.24c0.53,0,0.96,0.1,1.39,0.39c0.35,0.23,0.65,0.59,0.85,0.96L334.96,161.38z"/>
		<path class="st0" d="M342.01,160.57v7.77h-0.96v-7.77h-2.11v-0.91h5.18v0.91H342.01z"/>
		<path class="st0" d="M352.22,165.89h-3.69l-1.04,2.45h-1.07l3.99-9.09l3.89,9.09h-1.07L352.22,165.89z M351.84,164.98l-1.46-3.47
			l-1.48,3.47H351.84z"/>
		<path class="st0" d="M359.66,160.57v7.77h-0.96v-7.77h-2.11v-0.91h5.18v0.91H359.66z"/>
		<path class="st0" d="M370.16,160.57h-3.54v2.58h3.43v0.91h-3.43v3.37h3.54v0.91h-4.5v-8.68h4.5V160.57z"/>
		<path class="st0" d="M386.79,161.57c-0.27-0.27-0.69-0.6-1.13-0.81c-0.46-0.21-0.99-0.34-1.5-0.34c-2,0-3.49,1.61-3.49,3.62
			c0,2.36,1.91,3.54,3.5,3.54c0.59,0,1.16-0.17,1.61-0.4c0.49-0.25,0.85-0.57,1-0.73v1.2c-0.96,0.69-1.96,0.85-2.61,0.85
			c-2.58,0-4.49-1.95-4.49-4.46c0-2.59,1.94-4.51,4.54-4.51c0.52,0,1.52,0.07,2.56,0.86V161.57z"/>
		<path class="st0" d="M390.68,164c0-2.59,2.02-4.49,4.51-4.49s4.51,1.9,4.51,4.49c0,2.58-2,4.49-4.51,4.49
			C392.69,168.49,390.68,166.58,390.68,164z M391.67,164c0,1.99,1.57,3.58,3.52,3.58s3.52-1.59,3.52-3.58
			c0-1.99-1.57-3.58-3.52-3.58S391.67,162.01,391.67,164z"/>
		<path class="st0" d="M404.08,168.34v-9.04l6.76,7.09v-6.73h0.96v9.07l-6.76-7.09v6.7H404.08z"/>
		<path class="st0" d="M420.52,161.38c-0.12-0.23-0.31-0.49-0.51-0.65c-0.17-0.13-0.48-0.3-0.98-0.3c-0.86,0-1.46,0.53-1.46,1.34
			c0,0.34,0.09,0.53,0.33,0.75c0.26,0.26,0.59,0.4,0.91,0.55l0.83,0.36c0.51,0.22,0.97,0.46,1.34,0.82
			c0.44,0.44,0.62,0.95,0.62,1.57c0,1.6-1.18,2.67-2.74,2.67c-0.57,0-1.29-0.12-1.89-0.7c-0.43-0.42-0.69-1.01-0.81-1.53l0.94-0.26
			c0.07,0.45,0.27,0.85,0.52,1.11c0.38,0.38,0.81,0.48,1.25,0.48c1.18,0,1.74-0.85,1.74-1.72c0-0.39-0.12-0.73-0.43-1.01
			c-0.25-0.23-0.59-0.39-1.04-0.6l-0.78-0.36c-0.34-0.16-0.77-0.34-1.16-0.72c-0.38-0.36-0.6-0.77-0.6-1.42
			c0-1.34,1.03-2.24,2.43-2.24c0.53,0,0.96,0.1,1.39,0.39c0.35,0.23,0.65,0.59,0.85,0.96L420.52,161.38z"/>
		<path class="st0" d="M426.95,164.98c0,0.73,0,1.52,0.69,2.11c0.35,0.3,0.95,0.49,1.43,0.49c0.48,0,1.08-0.19,1.43-0.49
			c0.69-0.59,0.69-1.38,0.69-2.11v-5.32h0.96v5.58c0,0.73-0.08,1.43-0.55,2.08c-0.52,0.71-1.43,1.17-2.54,1.17
			c-1.11,0-2.02-0.46-2.54-1.17c-0.47-0.65-0.55-1.35-0.55-2.08v-5.58h0.96V164.98z"/>
		<path class="st0" d="M437.94,159.66v7.77h2.39v0.91h-3.36v-8.68H437.94z"/>
		<path class="st0" d="M446.14,160.57v7.77h-0.96v-7.77h-2.11v-0.91h5.18v0.91H446.14z"/>
		<path class="st0" d="M456.34,165.89h-3.69l-1.04,2.45h-1.07l3.99-9.09l3.89,9.09h-1.07L456.34,165.89z M455.96,164.98l-1.46-3.47
			l-1.48,3.47H455.96z"/>
		<path class="st0" d="M462.23,168.34v-9.04l6.76,7.09v-6.73h0.96v9.07l-6.76-7.09v6.7H462.23z"/>
		<path class="st0" d="M476.93,160.57v7.77h-0.96v-7.77h-2.11v-0.91h5.18v0.91H476.93z"/>
		<path class="st0" d="M486.46,161.38c-0.12-0.23-0.31-0.49-0.51-0.65c-0.17-0.13-0.48-0.3-0.98-0.3c-0.86,0-1.46,0.53-1.46,1.34
			c0,0.34,0.09,0.53,0.33,0.75c0.26,0.26,0.59,0.4,0.91,0.55l0.83,0.36c0.51,0.22,0.97,0.46,1.34,0.82
			c0.44,0.44,0.62,0.95,0.62,1.57c0,1.6-1.18,2.67-2.74,2.67c-0.57,0-1.29-0.12-1.89-0.7c-0.43-0.42-0.69-1.01-0.81-1.53l0.94-0.26
			c0.07,0.45,0.27,0.85,0.52,1.11c0.38,0.38,0.81,0.48,1.25,0.48c1.18,0,1.74-0.85,1.74-1.72c0-0.39-0.12-0.73-0.43-1.01
			c-0.25-0.23-0.59-0.39-1.04-0.6l-0.78-0.36c-0.34-0.16-0.77-0.34-1.16-0.72c-0.38-0.36-0.6-0.77-0.6-1.42
			c0-1.34,1.03-2.24,2.43-2.24c0.53,0,0.96,0.1,1.39,0.39c0.35,0.23,0.65,0.59,0.85,0.96L486.46,161.38z"/>
	</g>
</g>
</svg>
